HIERARCHY
ROOT Hips
{
	OFFSET 0.000000 0.000000 0.000000
	CHANNELS 6 Xposition Yposition Zposition Zrotation Yrotation Xrotation 
	JOINT LHipJoint
	{
		OFFSET 0.000000 0.000000 0.000000
		CHANNELS 3 Zrotation Yrotation Xrotation
		JOINT LeftUpLeg
		{
			OFFSET 1.363060 -1.794630 0.839290
			CHANNELS 3 Zrotation Yrotation Xrotation
			JOINT LeftLeg
			{
				OFFSET 2.448110 -6.726130 0.000000
				CHANNELS 3 Zrotation Yrotation Xrotation
				JOINT LeftFoot
				{
					OFFSET 2.562200 -7.039590 0.000000
					CHANNELS 3 Zrotation Yrotation Xrotation
					JOINT LeftToeBase
					{
						OFFSET 0.157640 -0.433110 2.322550
						CHANNELS 3 Zrotation Yrotation Xrotation
						End Site
						{
							OFFSET 0.000000 0.000000 0.000000
						}
					}
				}
			}
		}
	}
	JOINT RHipJoint
	{
		OFFSET 0.000000 0.000000 0.000000
		CHANNELS 3 Zrotation Yrotation Xrotation
		JOINT RightUpLeg
		{
			OFFSET -1.305520 -1.794630 0.839290
			CHANNELS 3 Zrotation Yrotation Xrotation
			JOINT RightLeg
			{
				OFFSET -2.542530 -6.985550 0.000000
				CHANNELS 3 Zrotation Yrotation Xrotation
				JOINT RightFoot
				{
					OFFSET -2.568260 -7.056230 0.000000
					CHANNELS 3 Zrotation Yrotation Xrotation
					JOINT RightToeBase
					{
						OFFSET -0.164730 -0.452590 2.363150
						CHANNELS 3 Zrotation Yrotation Xrotation
						End Site
						{
							OFFSET 0.000000 0.000000 0.000000
						}
					}
				}
			}
		}
	}
	JOINT LowerBack
	{
		OFFSET 0.000000 0.000000 0.000000
		CHANNELS 3 Zrotation Yrotation Xrotation
		JOINT Spine
		{
			OFFSET 0.028270 2.035590 -0.193380
			CHANNELS 3 Zrotation Yrotation Xrotation
			JOINT Spine1
			{
				OFFSET 0.056720 2.048850 -0.042750
				CHANNELS 3 Zrotation Yrotation Xrotation
				JOINT Neck
				{
					OFFSET 0.000000 0.000000 0.000000
					CHANNELS 3 Zrotation Yrotation Xrotation
					JOINT Neck1
					{
						OFFSET -0.054170 1.746240 0.172020
						CHANNELS 3 Zrotation Yrotation Xrotation
						JOINT Head
						{
							OFFSET 0.104070 1.761360 -0.123970
							CHANNELS 3 Zrotation Yrotation Xrotation
							End Site
							{
								OFFSET 0.000000 0.000000 0.000000
							}
						}
					}
				}
				JOINT LeftShoulder
				{
					OFFSET 0.000000 0.000000 0.000000
					CHANNELS 3 Zrotation Yrotation Xrotation
					JOINT LeftArm
					{
						OFFSET 3.362410 1.200890 -0.311210
						CHANNELS 3 Zrotation Yrotation Xrotation
						JOINT LeftForeArm
						{
							OFFSET 4.983000 -0.000000 -0.000000
							CHANNELS 3 Zrotation Yrotation Xrotation
							JOINT LeftHand
							{
								OFFSET 3.483560 -0.000000 -0.000000
								CHANNELS 3 Zrotation Yrotation Xrotation
								JOINT LeftFingerBase
								{
									OFFSET 0.000000 0.000000 0.000000
									CHANNELS 3 Zrotation Yrotation Xrotation
									JOINT LeftHandIndex1
									{
										OFFSET 0.715260 -0.000000 -0.000000
										CHANNELS 3 Zrotation Yrotation Xrotation
										End Site
										{
											OFFSET 0.000000 0.000000 0.000000
										}
									}
								}
								JOINT LThumb
								{
									OFFSET 0.000000 0.000000 0.000000
									CHANNELS 3 Zrotation Yrotation Xrotation
									End Site
									{
										OFFSET 0.000000 0.000000 0.000000
									}
								}
							}
						}
					}
				}
				JOINT RightShoulder
				{
					OFFSET 0.000000 0.000000 0.000000
					CHANNELS 3 Zrotation Yrotation Xrotation
					JOINT RightArm
					{
						OFFSET -3.136600 1.374050 -0.404650
						CHANNELS 3 Zrotation Yrotation Xrotation
						JOINT RightForeArm
						{
							OFFSET -5.241900 -0.000000 -0.000000
							CHANNELS 3 Zrotation Yrotation Xrotation
							JOINT RightHand
							{
								OFFSET -3.444170 -0.000000 -0.000000
								CHANNELS 3 Zrotation Yrotation Xrotation
								JOINT RightFingerBase
								{
									OFFSET 0.000000 0.000000 0.000000
									CHANNELS 3 Zrotation Yrotation Xrotation
									JOINT RightHandIndex1
									{
										OFFSET -0.622530 -0.000000 -0.000000
										CHANNELS 3 Zrotation Yrotation Xrotation
										End Site
										{
											OFFSET 0.000000 0.000000 0.000000
										}
									}
								}
								JOINT RThumb
								{
									OFFSET 0.000000 0.000000 0.000000
									CHANNELS 3 Zrotation Yrotation Xrotation
									End Site
									{
										OFFSET 0.000000 0.000000 0.000000
									}
								}
							}
						}
					}
				}
			}
		}
	}
}
MOTION
Frames: 5
Frame Time: 0.033333
1.298184 17.429790 -9.381294 -1.320065 2.232756 11.681562 -13.389583 3.595062 -1.606465 -4.872395 -1.964886 -17.621997 -6.750884 -5.481510 -6.105458 1.304550 7.379028 26.765764 0.623764 0.142078 -41.611341 14.535592 -0.146931 11.789459 8.028180 4.605455 -31.123775 -3.753371 -11.892397 38.829060 -1.126502 -0.515922 -2.803018 0.726260 -0.114024 -46.564868 5.555905 -11.819546 -8.872089 -3.110406 2.559878 -2.798707 -6.494450 2.665809 1.052089 9.992525 -3.809110 -5.365168 -2.844074 -0.353294 0.889672 -0.032760 0.020064 -0.004104 -0.143383 6.683983 8.457298 -62.243924 -40.664503 -5.566750 -9.599302 -40.839005 4.799298 7.433981 -2.700212 -0.197128 -0.135865 0.300725 0.004416 -0.058440 -0.038983 -0.034736 -0.001877 0.070720 -0.064344 20.205141 -27.274273 20.971046 61.280598 36.751447 6.289492 -3.554832 27.803813 -0.552181 -2.845530 9.025350 -0.210326 -0.126644 -0.102905 -0.043108 0.076108 0.056987 -0.091476 0.062875 -0.035558 0.024920 
1.365031 17.338220 -8.804268 -4.203117 1.936141 9.992371 -14.330922 4.861864 -0.872977 -0.631695 -1.429723 -19.066534 -9.770446 -6.412655 -10.385417 1.462999 8.283400 33.672009 1.052977 0.139852 -39.639267 15.045698 -4.870791 11.212046 14.507687 4.063325 -34.097917 -12.215510 -15.546146 41.270482 -0.370031 -14.527520 12.412219 0.648622 -0.094205 -46.164320 6.953208 -11.882542 -8.078894 -2.613968 3.224895 -3.003082 -7.028996 3.641362 0.501601 10.793342 -3.781015 -4.722893 -2.738961 -0.352312 0.925298 -0.030779 0.014250 -0.002326 -0.168410 6.993651 8.047861 -63.652035 -43.704443 -7.793021 -10.310557 -38.827324 4.810378 7.327264 -2.601574 -0.187946 -0.161594 0.329813 -0.000549 -0.046515 -0.045137 -0.034564 -0.006029 0.075092 -0.057206 21.109170 -26.600356 23.214179 60.774194 36.720465 6.843681 -3.544203 22.494580 -0.362839 -2.297599 8.986121 -0.172505 -0.109885 -0.142829 -0.041333 0.081410 0.058837 -0.099243 0.073906 -0.050454 0.011364 
1.432166 17.289174 -8.230640 -4.316584 -4.090825 8.305578 -14.759150 6.120944 1.518558 1.342178 -1.148297 -19.395642 -9.679826 -9.057979 -12.352223 1.478523 5.076014 29.563377 1.385346 0.095051 -38.017474 17.829100 -14.378951 7.101358 23.581024 -5.570500 -38.596340 -35.911769 -28.351579 31.872085 -6.873367 -46.455179 22.806037 0.317299 -0.028994 -46.155251 6.594121 -8.858539 -6.022356 -3.565453 5.304836 -3.021628 -7.741922 4.830062 -0.429926 11.740225 -3.821616 -4.445131 -2.680103 -0.336774 0.881219 -0.026656 0.010501 0.003064 -0.664036 7.325274 7.447365 -63.099088 -45.715216 -9.665511 -10.087245 -36.229114 4.253627 7.037194 -2.147208 -0.158073 -0.163401 0.325878 -0.002253 -0.036020 -0.044982 -0.032250 -0.007076 0.080284 -0.051537 21.648090 -26.615587 25.810830 61.741497 35.397504 8.487697 -3.899870 19.696023 -0.417950 -2.094573 8.740877 -0.171871 -0.102355 -0.182473 -0.041280 0.075224 0.054411 -0.101669 0.080132 -0.053154 -0.005229 
1.508212 17.280318 -7.661555 -4.570159 -5.847095 7.105417 -14.544922 7.671426 3.078884 1.550363 -0.148720 -17.823276 -10.652073 -9.499436 -12.896142 1.043357 4.895348 26.250172 1.690235 0.052607 -36.577144 19.563811 -19.056201 5.822538 28.917372 -10.219890 -41.286951 -41.645394 -40.553594 18.414567 -14.696155 -60.979582 15.977386 0.020960 0.010639 -45.700106 5.619797 -8.617433 -4.570777 -3.433349 5.219652 -3.299181 -8.187892 5.291777 -1.158868 12.681949 -3.944911 -4.292893 -2.508951 -0.335689 0.783636 -0.023779 0.007361 0.006850 -0.407878 7.280171 7.342439 -62.145314 -48.727595 -12.810677 -10.944580 -32.814266 4.662050 6.525727 -1.550217 -0.128906 -0.199279 0.364118 -0.008760 -0.029377 -0.051903 -0.027192 -0.014095 0.086167 -0.045331 23.411990 -26.231950 25.971011 62.065015 33.178329 10.661945 -4.040058 17.879523 -0.225105 -1.748176 8.627885 -0.156451 -0.063178 -0.211639 -0.039006 0.067575 0.054247 -0.106046 0.082086 -0.057639 -0.026079 
1.583635 17.305841 -7.113948 -4.912301 -4.978344 6.042485 -14.542628 7.838406 3.211660 2.181527 1.958605 -15.508414 -12.339805 -11.972184 -11.477945 0.416000 4.736466 23.501043 1.955488 0.017307 -36.287501 19.316652 -18.252121 7.296997 28.866381 -9.304981 -42.851116 -43.650003 -41.698504 19.380488 -22.359089 -65.869229 21.949607 -0.116284 0.028058 -45.536168 6.666728 -7.338465 -3.549101 -4.394674 4.282349 -3.445390 -7.852486 4.305996 -0.825718 12.889722 -4.230255 -4.673667 -2.528045 -0.328170 0.703676 -0.022528 0.006672 0.009625 -0.747769 6.002442 7.412606 -58.856000 -52.111483 -18.611721 -10.650340 -30.276955 4.083959 6.753628 -1.105654 -0.119827 -0.231856 0.338790 -0.005871 -0.023575 -0.047529 -0.019477 -0.012383 0.092584 -0.038068 22.717088 -28.326658 24.890122 64.080799 30.883206 12.502239 -3.659817 16.859965 0.456732 -1.881668 8.334954 -0.173115 -0.028536 -0.217179 -0.039656 0.059467 0.056293 -0.106304 0.086004 -0.049544 -0.038188 
